<svg width="800" height="1100" viewBox="0 0 800 1100" fill="none" xmlns="http://www.w3.org/2000/svg">
  <rect width="800" height="1100" fill="#1A2A34"/>
  <rect x="24" y="24" width="752" height="1052" rx="14" fill="url(#paint0_linear_1_2)" stroke="#C9A94D" stroke-width="2"/>
  <path d="M128 845C198 734 286 661 392 635C521 604 632 630 708 716V990H128V845Z" fill="#0C1821" fill-opacity="0.92"/>
  <path d="M170 350C229 278 315 228 392 220C470 212 552 239 621 306C563 348 480 380 396 392C312 404 243 396 170 350Z" fill="#E2C976" fill-opacity="0.12"/>
  <g opacity="0.94">
    <path d="M248 602L286 488H373L342 602H248Z" fill="#E7D7A7"/>
    <path d="M317 488H426L484 680H388L317 488Z" fill="#F1E5BE"/>
    <path d="M426 488H528L545 680H474L426 488Z" fill="#E7D7A7"/>
    <path d="M260 689H374L414 818H298L260 689Z" fill="#D8B867" fill-opacity="0.3"/>
    <path d="M447 689H557L540 818H441L447 689Z" fill="#D8B867" fill-opacity="0.3"/>
  </g>
  <path d="M262 465L347 540L413 472L487 549L575 463" stroke="#F1E7BE" stroke-width="12" stroke-linecap="round" stroke-linejoin="round"/>
  <path d="M264 826C338 778 392 756 454 756C517 756 574 780 634 832" stroke="#E7D7A8" stroke-width="10" stroke-linecap="round"/>
  <g opacity="0.9">
    <path d="M398 894V972" stroke="#E2C977" stroke-width="8" stroke-linecap="round"/>
    <path d="M338 928H448" stroke="#E2C977" stroke-width="8" stroke-linecap="round"/>
    <path d="M470 930H586" stroke="#E2C977" stroke-width="8" stroke-linecap="round"/>
    <path d="M648 924L642 772" stroke="#E2C977" stroke-width="8" stroke-linecap="round"/>
  </g>
  <defs>
    <linearGradient id="paint0_linear_1_2" x1="100" y1="90" x2="726" y2="1010" gradientUnits="userSpaceOnUse">
      <stop stop-color="#2A3848"/>
      <stop offset="0.5" stop-color="#1C2B39"/>
      <stop offset="1" stop-color="#101A22"/>
    </linearGradient>
  </defs>
</svg>
